<?xml version="1.0" standalone="no"?>
<!DOCTYPE svg PUBLIC "-//W3C//DTD SVG 20010904//EN"
 "http://www.w3.org/TR/2001/REC-SVG-20010904/DTD/svg10.dtd">
<svg version="1.0" xmlns="http://www.w3.org/2000/svg"
 width="2192.000000pt" height="2551.000000pt" viewBox="0 0 2192.000000 2551.000000"
 preserveAspectRatio="xMidYMid meet">

<g transform="translate(0.000000,2551.000000) scale(0.100000,-0.100000)"
fill="#000000" stroke="none">
<path d="M705 24783 c5 -10 14 -63 21 -118 7 -55 18 -136 24 -180 23 -155 99
-788 140 -1150 16 -148 32 -281 36 -295 3 -14 19 -142 35 -285 16 -143 36
-314 44 -380 17 -136 13 -205 -20 -350 -13 -55 -42 -196 -65 -312 -23 -117
-52 -256 -66 -309 -13 -54 -29 -138 -34 -188 -6 -50 -22 -158 -35 -241 -25
-143 -26 -172 -29 -620 -2 -258 -7 -519 -11 -578 -9 -126 13 -296 71 -532 19
-77 39 -171 44 -209 6 -38 13 -73 16 -78 3 -4 16 -61 28 -126 20 -100 29 -125
58 -163 19 -25 47 -80 62 -122 17 -47 42 -92 64 -116 72 -78 228 -214 279
-243 29 -16 54 -37 57 -46 10 -31 55 -543 76 -862 11 -173 31 -472 45 -665 14
-192 34 -485 45 -650 36 -517 152 -1801 200 -2225 11 -96 34 -294 50 -440 17
-146 32 -276 35 -290 21 -110 111 -939 145 -1330 11 -129 39 -434 61 -678 l41
-443 -199 -197 c-250 -247 -410 -434 -526 -612 l-35 -55 64 -225 c234 -811
463 -1895 594 -2810 17 -118 33 -226 36 -240 5 -24 6 -24 27 10 l22 35 3 -51
3 -51 62 -7 c34 -3 120 -9 190 -12 140 -8 157 -15 157 -63 0 -30 5 -34 278
-204 263 -165 825 -486 1322 -754 273 -147 1120 -576 1340 -678 58 -26 157
-73 220 -103 155 -73 669 -308 750 -342 36 -15 121 -52 190 -83 109 -48 293
-127 495 -214 33 -14 84 -36 113 -49 29 -13 55 -24 59 -24 3 0 24 -9 47 -20
56 -26 183 -80 190 -80 3 0 35 -14 71 -30 36 -17 68 -30 71 -30 3 0 29 -11 57
-24 29 -13 63 -27 77 -31 14 -4 30 -11 35 -15 6 -4 35 -17 65 -28 30 -11 93
-37 140 -57 47 -20 105 -44 130 -52 25 -9 54 -22 65 -29 11 -6 38 -17 60 -24
22 -7 45 -17 51 -21 6 -5 35 -18 65 -28 30 -11 92 -36 139 -56 47 -20 101 -42
120 -50 74 -28 167 -73 206 -101 138 -97 282 -206 335 -254 9 -8 43 -37 75
-65 338 -288 639 -635 930 -1075 123 -185 141 -214 160 -253 21 -44 26 -45 48
-12 9 14 63 82 119 152 56 69 113 140 127 157 351 437 815 907 1145 1158 39
29 76 59 83 66 7 6 17 12 21 12 4 0 16 8 27 18 82 76 641 402 689 402 3 0 30
11 58 24 67 32 194 86 201 86 3 0 30 11 60 25 30 14 57 25 60 25 3 0 35 14 71
30 36 17 68 30 71 30 3 0 29 11 57 24 29 13 63 27 77 31 14 4 41 16 60 26 19
11 38 19 42 19 4 0 32 11 62 25 30 14 57 25 60 25 3 0 29 11 58 24 29 13 118
52 198 85 80 34 163 71 186 81 23 11 44 20 48 20 4 0 31 11 59 24 29 14 115
53 192 86 77 34 160 71 185 82 25 11 63 28 85 38 22 10 117 53 210 95 94 43
206 94 250 115 44 21 125 59 180 85 263 123 364 172 685 332 359 179 726 368
745 382 5 5 69 39 140 76 72 38 166 89 210 114 l80 46 635 0 c661 1 1104 9
1300 24 63 5 131 8 150 7 46 -3 152 26 215 58 28 14 54 26 58 26 4 0 40 21 80
47 39 27 126 73 192 104 66 30 154 76 195 101 87 53 78 33 150 343 115 493
134 581 170 800 51 312 60 371 70 487 6 62 15 151 20 198 19 162 40 676 40
974 0 264 2 302 17 318 15 17 15 21 -2 57 -15 35 -28 44 -124 89 -359 171
-799 300 -1380 407 -107 20 -196 37 -198 39 -2 2 1 39 7 82 5 44 21 205 35
359 13 154 27 298 30 320 7 52 51 500 75 770 10 116 24 248 30 295 6 47 19
193 30 325 32 382 54 581 120 1075 16 124 48 383 70 575 22 193 42 361 45 375
2 14 29 277 60 585 30 308 61 621 70 695 8 74 27 281 40 460 72 932 85 1116
100 1360 9 146 25 384 35 529 11 146 20 278 20 294 0 23 21 51 113 145 l113
117 23 105 c12 58 89 377 171 710 253 1026 327 1378 386 1840 9 74 21 137 25
140 4 3 14 36 23 73 9 37 22 83 30 102 13 31 13 40 -5 89 -17 51 -18 76 -13
368 4 225 10 328 20 365 41 150 38 234 -14 423 -26 95 -29 151 -20 400 3 94
-13 173 -43 208 -16 18 -30 45 -30 60 -1 17 -3 20 -6 10 -2 -10 -7 -18 -10
-18 -2 0 -49 33 -102 73 -54 39 -110 81 -125 92 l-27 20 21 170 c12 94 27 229
35 300 7 72 23 211 34 310 11 99 39 355 61 569 23 215 46 398 51 407 13 26 11
30 -13 24 -23 -5 -397 -95 -583 -140 -55 -13 -167 -40 -250 -60 -82 -20 -197
-47 -255 -61 -58 -14 -150 -36 -205 -49 -98 -23 -302 -72 -420 -100 -33 -8
-109 -26 -170 -40 -60 -14 -155 -37 -210 -50 -55 -13 -143 -34 -195 -46 -225
-51 -303 -69 -430 -99 -121 -29 -224 -52 -415 -95 -58 -13 -66 -12 -290 35
-1104 232 -2182 386 -3435 489 -1124 93 -2042 125 -3184 110 -2336 -31 -4446
-287 -5538 -672 l-126 -45 -118 25 c-140 30 -276 59 -469 103 -77 17 -189 42
-250 55 -60 14 -159 36 -220 50 -60 13 -159 35 -220 49 -60 14 -162 36 -225
51 -63 14 -176 40 -250 57 -74 17 -182 41 -240 54 -179 42 -426 98 -630 144
-52 11 -142 32 -200 46 -121 28 -230 53 -385 88 -60 14 -180 41 -265 61 -85
19 -166 38 -179 41 -20 4 -22 2 -16 -13z m1935 -3502 c2949 -613 4113 -831
5255 -985 757 -103 1267 -147 1965 -172 630 -22 1340 -5 1940 46 1484 127
3061 409 6519 1166 345 76 583 123 597 120 45 -12 47 -43 20 -255 -14 -108
-35 -272 -47 -366 l-21 -170 -41 -55 c-162 -216 -466 -551 -826 -911 -324
-323 -505 -490 -796 -735 -658 -551 -1316 -1010 -2302 -1605 -29 -18 -31 -18
-27 -2 3 10 -11 148 -31 307 l-36 290 34 35 c187 198 357 394 357 411 0 12
-10 24 -22 30 -13 5 -143 32 -289 60 l-267 52 -140 261 c-117 219 -144 262
-162 262 -18 0 -45 -43 -162 -262 l-140 -261 -267 -52 c-146 -28 -276 -55
-288 -60 -13 -6 -23 -18 -23 -30 0 -17 159 -200 357 -411 l34 -36 -37 -291
c-20 -161 -34 -299 -30 -307 3 -8 14 -15 24 -15 11 0 135 56 276 124 l256 125
256 -125 c141 -68 264 -124 272 -124 13 0 13 -3 -3 -14 -35 -24 -405 -235
-575 -328 -91 -50 -214 -117 -273 -150 l-109 -61 -111 110 c-164 161 -274 259
-281 252 -2 -2 -9 -96 -15 -209 -6 -113 -14 -244 -17 -292 l-6 -87 -339 -171
c-186 -93 -340 -170 -342 -170 -3 0 -7 296 -10 658 -5 643 -11 775 -39 809 -9
11 -309 163 -322 163 -3 0 -33 13 -68 29 -35 15 -90 38 -123 50 -33 13 -75 29
-93 37 -18 8 -41 14 -50 14 -10 0 -22 4 -28 9 -28 25 -358 111 -564 147 -243
42 -394 56 -645 61 -261 5 -379 -6 -388 -36 -3 -9 -20 -56 -37 -106 -34 -97
-61 -218 -87 -385 -15 -92 -17 -260 -20 -1363 l-4 -1258 -42 -19 c-23 -10
-107 -49 -187 -85 -80 -37 -151 -69 -157 -72 -10 -4 -13 234 -13 1168 0 1165
-5 1384 -35 1564 -21 123 -72 308 -104 375 -14 30 -27 56 -27 58 -1 2 -66 -18
-145 -43 -150 -49 -423 -158 -569 -227 -177 -84 -426 -235 -631 -383 -52 -37
-114 -79 -138 -93 -24 -13 -57 -40 -74 -59 -44 -50 -166 -147 -205 -163 -21
-8 -58 -43 -98 -94 -36 -45 -109 -128 -162 -186 -114 -122 -159 -173 -230
-256 l-52 -62 0 -1374 0 -1375 -87 -38 c-49 -21 -130 -60 -180 -87 -51 -26
-95 -48 -98 -48 -3 0 -5 536 -5 1191 0 788 -3 1188 -10 1184 -17 -11 -199
-321 -285 -489 -368 -711 -596 -1451 -722 -2339 l-8 -58 -190 -98 c-515 -264
-1259 -680 -1745 -976 -401 -244 -980 -624 -1153 -758 -47 -37 -52 -31 -60 66
-4 40 -27 225 -52 412 -152 1124 -252 2101 -340 3345 -14 195 -29 405 -35 465
-5 61 -14 171 -20 245 -6 74 -27 284 -46 465 -19 182 -44 418 -54 525 -11 107
-45 428 -77 712 -32 284 -55 519 -52 523 13 12 289 35 679 54 196 10 884 -3
995 -19 39 -5 144 -9 235 -8 102 1 184 -3 215 -11 33 -8 82 -10 145 -6 65 5
130 2 205 -9 61 -8 187 -22 280 -31 189 -18 297 -34 454 -71 177 -41 422 -115
562 -170 94 -37 115 -40 142 -20 16 12 13 18 -42 68 -33 31 -124 105 -203 166
-78 61 -189 147 -244 191 -56 44 -241 173 -410 286 -170 112 -319 212 -332
221 -23 16 -23 16 -4 30 30 21 253 91 397 124 72 17 198 53 282 81 134 44 356
97 668 160 174 35 551 146 1210 356 94 30 233 72 310 95 308 89 343 101 310
109 -16 3 -82 7 -146 8 -215 2 -523 21 -749 46 -323 37 -527 64 -590 80 -30 8
-95 19 -145 25 -49 6 -191 31 -315 56 -124 25 -272 54 -330 64 -135 24 -275
55 -370 81 -41 11 -145 33 -230 49 -85 16 -175 33 -200 39 -25 5 -126 24 -224
41 -99 17 -214 40 -255 50 -42 11 -107 24 -146 30 -38 5 -113 17 -165 25 -111
18 -164 24 -565 70 -165 19 -379 44 -475 55 -96 11 -186 22 -200 25 -154 28
-449 92 -540 116 -167 45 -516 188 -535 219 -4 6 -20 109 -36 228 -15 119 -40
295 -54 391 -14 96 -24 180 -21 188 4 8 14 11 28 8 13 -3 390 -81 838 -174z
m11824 -2509 l138 -258 277 -54 c152 -29 279 -56 283 -60 5 -3 -80 -102 -187
-220 -124 -136 -195 -221 -195 -234 0 -12 16 -145 34 -296 19 -151 33 -276 32
-278 -2 -1 -121 55 -264 125 l-262 127 -262 -127 c-143 -70 -262 -126 -264
-125 -1 2 13 127 32 278 18 151 34 284 34 296 0 13 -71 98 -195 234 -107 118
-192 217 -187 220 4 4 131 31 283 60 l277 54 138 258 c76 142 141 258 144 258
3 0 68 -116 144 -258z m3989 -1949 c-51 -466 -119 -1176 -143 -1513 -11 -151
-27 -372 -35 -490 -54 -738 -208 -2222 -286 -2750 -71 -483 -91 -636 -114
-852 -14 -134 -34 -322 -45 -418 -11 -96 -42 -393 -70 -660 -27 -267 -52 -496
-55 -510 -3 -14 -23 -205 -45 -425 -22 -220 -45 -431 -50 -470 -6 -38 -26
-225 -45 -414 -19 -190 -39 -349 -45 -355 -14 -14 -131 -25 -285 -25 -71 -1
-165 -8 -208 -16 -43 -8 -104 -15 -134 -15 -30 0 -80 -7 -111 -17 -32 -9 -92
-24 -134 -33 l-78 -17 -5 31 c-2 17 -12 89 -20 160 l-16 129 34 36 c186 197
357 394 357 411 0 12 -10 24 -22 30 -13 5 -143 32 -289 60 l-267 52 -140 261
c-117 219 -144 262 -162 262 -18 0 -45 -43 -162 -261 l-140 -262 -242 -47
c-132 -25 -262 -51 -287 -56 -83 -18 -77 -29 108 -232 92 -100 181 -198 200
-218 l33 -35 -31 -265 c-22 -181 -37 -269 -47 -281 -8 -10 -51 -32 -96 -49
-44 -17 -92 -39 -107 -49 -14 -10 -38 -22 -55 -26 -16 -4 -33 -10 -39 -15 -5
-4 -39 -19 -75 -32 -36 -14 -121 -49 -190 -77 -69 -29 -150 -60 -180 -71 -30
-10 -93 -32 -140 -49 -47 -18 -98 -37 -115 -43 -16 -6 -52 -27 -80 -48 -56
-41 -172 -108 -225 -129 -19 -7 -98 -50 -175 -95 -77 -45 -169 -97 -204 -115
-36 -17 -70 -38 -78 -45 -7 -8 -22 -17 -33 -20 -11 -3 -20 -11 -20 -16 0 -5
-9 -9 -20 -9 -11 0 -20 -4 -20 -9 0 -5 -10 -11 -23 -15 -13 -3 -41 -13 -63
-23 -21 -9 -41 -17 -44 -18 -3 -1 -42 -20 -87 -43 -46 -23 -83 -39 -83 -36 0
4 -6 2 -12 -3 -7 -5 -35 -18 -62 -28 -45 -16 -48 -19 -27 -27 13 -4 26 -6 29
-4 7 4 38 6 332 27 346 24 1092 3 1495 -42 55 -6 213 -28 350 -49 138 -21 309
-46 380 -55 72 -9 134 -20 139 -25 17 -17 -13 -37 -171 -110 -87 -40 -198 -95
-248 -121 -49 -26 -133 -64 -185 -85 -163 -64 -273 -119 -381 -191 -57 -38
-133 -82 -169 -98 -68 -31 -193 -103 -270 -155 -25 -17 -65 -44 -90 -60 -25
-17 -96 -85 -159 -153 -279 -298 -519 -520 -685 -635 -43 -30 -76 -56 -73 -58
3 -3 27 6 54 19 79 40 387 170 524 221 241 88 675 224 685 213 15 -14 -1131
-478 -1906 -772 -480 -182 -587 -227 -764 -318 -531 -273 -1079 -733 -1641
-1380 -37 -42 -70 -77 -74 -77 -4 0 -30 33 -57 72 -284 419 -622 781 -985
1055 -113 85 -255 183 -329 225 -25 15 -339 137 -699 272 -1627 613 -2516 986
-3541 1483 -448 218 -1346 697 -1395 744 -5 5 -15 62 -22 127 -104 972 -114
1083 -101 1099 20 25 395 336 553 459 484 378 1086 801 1685 1186 342 219 819
513 825 507 2 -2 29 -76 60 -163 132 -373 279 -704 448 -1011 64 -118 167
-291 201 -340 l21 -30 5 995 5 995 90 48 c50 27 131 73 180 103 l90 55 5
-1363 5 -1364 80 -94 c102 -122 460 -481 590 -592 113 -97 352 -278 366 -278
5 0 9 767 9 1968 l0 1967 352 6 c386 6 414 10 533 70 244 125 411 418 485 855
11 65 22 124 25 131 2 7 48 34 102 60 89 43 346 175 860 439 l182 94 3 -152 3
-153 255 -5 c249 -5 256 -6 305 -31 56 -29 79 -62 103 -146 14 -52 16 -264 19
-2128 l3 -2070 -33 -80 c-113 -268 -152 -354 -158 -347 -4 4 -46 104 -93 221
l-86 215 0 1738 0 1738 -520 0 -520 0 3 -2017 c3 -1843 5 -2028 20 -2138 47
-326 120 -542 247 -730 50 -74 166 -191 241 -242 l45 -31 159 9 c270 15 525
55 785 123 142 38 205 58 216 69 4 4 14 7 23 7 9 0 47 12 86 26 131 48 156 58
339 140 l109 49 30 65 c70 154 118 342 148 580 20 152 20 4363 1 4490 -21 136
-58 278 -107 415 -139 384 -310 616 -507 689 -45 17 -64 36 -35 36 27 0 153
90 225 162 40 40 103 116 138 169 l64 96 162 81 c156 77 358 182 536 279 l83
45 -5 -63 c-3 -35 -10 -165 -16 -289 -5 -124 -15 -306 -20 -405 -6 -99 -19
-362 -30 -585 -11 -223 -22 -441 -25 -485 -3 -44 -9 -183 -15 -310 -5 -126
-14 -306 -20 -400 -5 -93 -17 -312 -25 -485 -24 -494 -118 -2373 -130 -2570
-3 -52 -10 -189 -15 -305 -5 -115 -12 -246 -15 -290 -2 -44 -7 -127 -10 -185
-3 -58 -10 -194 -16 -304 -5 -109 -8 -200 -6 -202 5 -5 185 116 297 200 173
130 353 288 551 486 l197 196 6 149 c4 83 9 179 11 215 3 36 9 171 15 300 6
129 15 330 21 445 6 116 14 280 17 365 l7 155 316 3 316 2 8 -187 c4 -104 8
-199 10 -213 1 -14 3 -60 4 -103 0 -43 5 -76 9 -73 12 7 221 430 281 567 67
156 127 304 146 364 9 28 23 64 31 82 8 17 14 40 14 50 0 10 4 23 9 29 9 10
41 106 41 123 0 5 5 22 12 38 15 36 51 155 63 208 3 11 11 43 19 70 8 28 22
82 31 120 10 39 20 77 22 85 3 8 7 22 8 30 1 8 8 35 14 60 7 25 14 54 16 65 2
11 17 94 35 185 36 194 74 446 91 617 10 96 10 170 0 355 -6 128 -16 323 -21
433 -5 110 -12 238 -15 285 -2 47 -9 182 -15 300 -15 318 -38 749 -45 830 -7
89 -79 418 -116 529 -6 19 -20 66 -30 105 -24 93 -43 154 -57 189 -7 16 -12
34 -12 40 0 7 -16 57 -34 112 -19 55 -31 103 -27 106 3 4 47 29 96 57 146 80
822 496 1074 661 27 17 24 12 -151 -316 l-60 -111 -267 -52 c-146 -28 -276
-54 -288 -57 -52 -12 -30 -47 170 -265 168 -184 192 -214 191 -241 -1 -18 -16
-150 -34 -295 -17 -145 -29 -270 -26 -278 3 -8 14 -14 24 -14 11 0 135 56 276
124 l256 125 256 -125 c141 -68 265 -124 276 -124 10 0 21 6 24 14 3 8 -11
146 -31 307 l-36 293 34 35 c187 198 357 394 357 411 0 12 -10 24 -22 30 -13
5 -143 32 -290 61 l-266 51 -108 201 c-59 111 -120 225 -136 253 l-28 50 218
146 c554 371 1085 767 1575 1175 81 68 152 123 156 123 4 0 6 -12 4 -27z
m-6827 -517 c90 -47 85 -27 82 -335 l-3 -272 -120 -54 c-66 -29 -142 -65 -169
-79 -27 -14 -55 -26 -63 -26 -11 0 -13 73 -13 393 0 217 3 397 8 401 4 5 57 6
117 4 96 -4 117 -8 161 -32z m2764 -274 c27 -27 50 -85 50 -127 0 -11 15 -36
33 -55 35 -39 228 -180 245 -180 6 0 31 -17 56 -37 25 -21 71 -55 103 -76 225
-146 243 -162 243 -215 0 -80 4 -78 -644 -423 -592 -316 -599 -319 -658 -319
-32 0 -71 6 -86 14 l-28 14 -22 -57 c-12 -31 -34 -71 -49 -88 -40 -44 -2310
-1253 -2354 -1253 -45 0 -92 53 -153 170 -27 52 -55 104 -62 115 -8 11 -14 44
-14 73 0 46 4 58 29 83 25 25 37 29 83 29 l53 0 -37 25 c-20 14 -41 25 -46 25
-5 0 -40 23 -78 50 -54 39 -77 50 -107 50 -53 0 -97 43 -97 96 0 38 38 177 67
247 22 51 66 87 106 87 32 0 70 -24 257 -162 113 -84 91 -87 371 62 161 85
254 130 274 129 48 0 98 -22 173 -77 l71 -51 -6 88 c-5 81 -4 93 21 146 37 82
92 153 136 175 21 11 42 24 45 30 6 9 32 95 92 295 15 53 38 140 48 189 3 16
21 44 40 63 41 41 90 45 130 11 23 -21 65 -114 65 -147 0 -16 99 -111 116
-111 6 0 71 -43 145 -96 74 -54 150 -108 170 -121 l35 -23 105 56 c57 30 108
59 112 64 11 10 -54 60 -77 60 -9 0 -48 -16 -86 -35 -86 -44 -122 -45 -161 -6
-44 45 -41 81 31 301 15 47 31 101 35 120 23 107 70 150 301 272 167 89 194
106 194 126 0 13 13 37 29 53 25 24 38 29 78 29 66 0 88 -18 134 -114 53 -111
54 -188 5 -343 -62 -197 -75 -238 -71 -241 4 -4 62 25 152 75 l63 35 -15 35
c-8 19 -15 57 -15 82 0 54 19 123 111 415 11 33 19 68 19 79 0 12 16 72 36
136 28 90 43 122 69 148 44 44 94 46 135 5z m-5540 -831 c0 -635 -3 -811 -12
-818 -7 -5 -58 -29 -113 -52 -55 -24 -130 -59 -167 -77 -37 -19 -70 -34 -73
-34 -3 0 -4 370 -3 822 l3 821 65 36 c74 41 281 122 292 115 5 -3 8 -369 8
-813z m7784 -107 l118 -220 277 -54 c152 -29 279 -56 283 -60 5 -3 -80 -102
-187 -220 -124 -136 -195 -221 -195 -234 0 -12 16 -145 34 -296 19 -151 33
-276 32 -278 -2 -1 -121 55 -264 125 l-262 127 -262 -127 c-143 -70 -262 -126
-264 -125 -1 2 13 127 32 278 18 151 34 284 34 296 0 13 -71 98 -195 234 -107
118 -192 217 -187 220 4 4 131 31 283 60 l277 54 118 220 c65 122 128 238 142
260 l24 39 22 -39 c12 -22 75 -138 140 -260z m-6791 -714 c14 -11 72 -107 128
-213 176 -332 162 -306 339 -637 40 -74 91 -170 113 -213 62 -118 128 -146
272 -112 133 32 141 31 180 -8 31 -31 35 -41 35 -87 0 -47 -4 -55 -42 -95 -28
-29 -88 -68 -168 -111 -125 -66 -125 -67 -222 -72 -96 -5 -98 -4 -146 27 -58
37 -121 109 -155 177 -13 27 -57 110 -97 184 -40 74 -92 171 -115 215 -163
312 -155 301 -248 366 l-61 43 49 -90 c46 -84 89 -166 134 -251 27 -52 41
-146 43 -286 l1 -118 56 -41 c99 -71 174 -157 215 -244 42 -88 47 -134 19
-173 -11 -14 -76 -57 -146 -94 l-127 -69 0 -41 c0 -23 -3 -52 -6 -64 -5 -19 0
-23 33 -32 97 -26 128 -137 78 -275 -49 -135 -86 -177 -193 -219 -59 -24 -79
-21 -114 13 -27 28 -29 35 -26 83 2 28 8 60 12 70 6 13 4 17 -11 17 -28 0
-100 54 -118 89 -19 38 -20 131 0 157 25 33 18 44 -25 44 -51 0 -90 20 -125
62 -15 19 -22 23 -16 11 18 -36 13 -153 -10 -229 -19 -64 -60 -175 -97 -267
-31 -76 -106 -109 -160 -71 -21 14 -24 14 -50 -8 -31 -25 -135 -79 -192 -98
-53 -18 -252 -25 -331 -11 l-68 13 -376 -201 c-412 -220 -427 -226 -478 -175
-25 24 -63 90 -142 239 -18 33 -58 110 -90 170 -32 61 -89 169 -128 240 -39
72 -84 157 -100 190 -47 95 -64 113 -171 190 -148 108 -156 116 -156 167 0 33
8 54 34 91 40 57 70 128 90 217 19 81 48 110 110 110 72 0 87 -18 231 -295 18
-33 52 -98 77 -145 242 -451 287 -537 325 -613 26 -51 43 -72 68 -84 40 -19
43 -18 189 61 l99 54 -31 16 c-39 20 -86 21 -103 0 -21 -25 -65 -44 -104 -44
-52 0 -95 44 -95 97 0 41 43 197 59 217 5 6 15 34 22 61 36 149 109 245 186
245 54 0 112 -33 318 -182 110 -79 205 -147 212 -151 6 -4 62 20 123 53 61 33
120 60 131 60 15 0 10 9 -25 43 -59 56 -81 129 -71 231 l6 71 -43 12 c-24 7
-77 15 -120 19 -128 11 -184 63 -174 164 10 97 56 195 112 239 35 27 93 28
128 0 27 -21 46 -18 46 7 0 23 49 102 77 124 40 31 84 25 189 -26 128 -62 144
-85 144 -212 0 -102 -12 -137 -55 -169 -43 -31 -41 -34 200 -207 44 -32 100
-79 124 -104 41 -45 42 -46 22 -11 -13 23 -21 54 -21 84 0 42 4 51 44 90 50
48 76 94 100 177 9 31 16 58 16 61 0 2 -28 23 -62 47 -223 154 -378 291 -378
335 0 14 -100 97 -194 160 -74 50 -86 68 -86 127 0 37 6 54 28 80 47 56 92
174 92 242 0 41 58 96 102 96 54 0 93 -32 137 -112 23 -40 41 -68 41 -61 0 7
13 27 29 45 42 48 100 194 101 251 0 18 11 39 29 58 24 23 38 29 74 29 56 0
85 -22 123 -95 16 -30 32 -55 37 -55 27 0 117 209 117 273 0 10 13 32 29 48
37 36 104 41 144 9z m4707 -197 c1 -27 2 -73 4 -103 2 -30 7 -140 10 -245 4
-104 9 -237 11 -295 3 -58 9 -231 15 -385 5 -154 12 -347 15 -430 3 -82 10
-271 15 -420 9 -267 20 -570 40 -1105 6 -151 14 -382 17 -512 l6 -238 -277 0
c-244 0 -277 2 -283 16 -3 9 2 224 11 477 10 254 20 534 22 622 3 88 18 529
34 980 16 451 35 979 42 1173 l12 354 85 43 c48 24 113 59 145 79 33 20 63 36
68 36 4 0 8 -21 8 -47z m-7481 -2509 c41 -14 67 -30 181 -114 145 -107 141
-105 198 -102 47 3 56 0 82 -27 26 -25 30 -37 30 -84 0 -56 -25 -103 -81 -153
-35 -31 -1047 -567 -1078 -571 -19 -3 -37 6 -66 32 -22 20 -59 52 -82 72 -24
19 -41 39 -38 43 3 5 -13 40 -35 79 -32 57 -40 80 -40 121 0 44 5 56 29 81 22
21 39 29 66 29 l36 0 -18 25 c-10 13 -23 25 -29 25 -6 0 -43 23 -82 50 -54 38
-80 50 -107 50 -27 0 -44 8 -67 30 -28 28 -30 35 -26 83 7 84 66 257 99 289
54 54 96 38 324 -130 32 -24 75 -50 94 -58 l34 -14 241 129 c133 71 252 130
266 130 14 0 45 -6 69 -15z m9115 -2692 l138 -258 277 -54 c152 -29 279 -56
283 -60 5 -3 -80 -102 -187 -220 -150 -164 -195 -219 -195 -239 1 -14 9 -89
19 -166 10 -77 16 -143 12 -147 -10 -11 -178 -38 -239 -38 -30 0 -72 -5 -94
-12 -35 -10 -44 -9 -98 17 l-59 28 -172 -82 c-134 -65 -189 -86 -255 -98 -47
-9 -87 -13 -90 -11 -2 3 9 116 26 252 16 136 30 255 30 265 0 10 -88 114 -195
231 -107 118 -192 217 -187 220 4 4 131 31 283 60 l277 54 138 258 c76 142
141 258 144 258 3 0 68 -116 144 -258z m-101 -1204 l42 -22 -59 -18 c-32 -10
-89 -23 -125 -29 -36 -5 -77 -12 -91 -15 -14 -3 22 20 80 50 58 30 106 55 108
55 1 1 22 -9 45 -21z"/>
<path d="M6742 18923 c-43 -81 -107 -200 -142 -265 l-62 -116 -267 -52 c-146
-28 -276 -55 -288 -60 -13 -6 -23 -18 -23 -30 0 -17 159 -200 357 -411 l34
-35 -36 -293 c-20 -161 -34 -299 -31 -307 3 -8 14 -14 24 -14 11 0 135 56 276
124 l256 125 256 -125 c141 -68 265 -124 276 -124 10 0 21 6 24 14 3 8 -11
146 -30 307 l-36 293 33 35 c187 198 357 394 357 411 0 12 -10 24 -22 30 -13
5 -143 32 -289 60 l-267 52 -140 261 c-104 194 -145 263 -160 265 -16 3 -34
-23 -100 -145z m242 -151 l138 -258 277 -54 c152 -29 279 -56 283 -60 5 -3
-80 -102 -187 -220 -124 -136 -195 -221 -195 -234 0 -12 16 -145 34 -296 19
-151 33 -276 32 -278 -2 -1 -121 55 -264 125 l-262 127 -262 -127 c-143 -70
-262 -126 -264 -125 -1 2 13 127 32 278 18 151 34 284 34 296 0 13 -71 98
-195 234 -107 118 -192 217 -187 220 4 4 131 31 283 60 l277 54 138 258 c76
142 141 258 144 258 3 0 68 -116 144 -258z"/>
<path d="M10276 18171 c-4 -7 -5 -15 -2 -18 9 -9 19 4 14 18 -4 11 -6 11 -12
0z"/>
<path d="M9480 17989 c0 -5 5 -7 10 -4 6 3 10 8 10 11 0 2 -4 4 -10 4 -5 0
-10 -5 -10 -11z"/>
<path d="M4622 15283 c-43 -81 -107 -200 -142 -265 l-62 -116 -267 -52 c-146
-28 -276 -55 -288 -60 -13 -6 -23 -18 -23 -30 0 -17 159 -200 357 -411 l34
-35 -36 -293 c-20 -161 -34 -299 -31 -307 3 -8 14 -14 24 -14 11 0 135 56 276
124 l256 125 256 -125 c141 -68 265 -124 276 -124 10 0 21 6 24 14 3 8 -11
146 -31 307 l-36 293 34 35 c187 198 357 394 357 411 0 12 -10 24 -22 30 -13
5 -143 32 -289 60 l-267 52 -140 261 c-104 194 -145 263 -160 265 -16 3 -34
-23 -100 -145z m242 -151 l138 -258 277 -54 c152 -29 279 -56 283 -60 5 -3
-80 -102 -187 -220 -124 -136 -195 -221 -195 -234 0 -12 16 -145 34 -296 19
-151 33 -276 32 -278 -2 -1 -121 55 -264 125 l-262 127 -262 -127 c-143 -70
-262 -126 -264 -125 -1 2 13 127 32 278 18 151 34 284 34 296 0 13 -71 98
-195 234 -107 118 -192 217 -187 220 4 4 131 31 283 60 l277 54 138 258 c76
142 141 258 144 258 3 0 68 -116 144 -258z"/>
<path d="M5022 8773 c-43 -81 -107 -200 -142 -265 l-62 -116 -267 -52 c-146
-28 -276 -55 -288 -60 -13 -6 -23 -18 -23 -30 0 -17 159 -200 357 -411 l34
-35 -36 -293 c-20 -161 -34 -299 -31 -307 3 -8 14 -14 24 -14 11 0 135 56 276
124 l256 125 256 -125 c141 -68 265 -124 276 -124 10 0 21 6 24 14 3 8 -11
146 -31 307 l-36 293 34 35 c187 198 357 394 357 411 0 12 -10 24 -22 30 -13
5 -143 32 -289 60 l-267 52 -140 261 c-104 194 -145 263 -160 265 -16 3 -34
-23 -100 -145z m242 -151 l138 -258 277 -54 c152 -29 279 -56 283 -60 5 -3
-80 -102 -187 -220 -124 -136 -195 -221 -195 -234 0 -12 16 -145 34 -296 19
-151 33 -276 32 -278 -2 -1 -121 55 -264 125 l-262 127 -262 -127 c-143 -70
-262 -126 -264 -125 -1 2 13 127 32 278 18 151 34 284 34 296 0 13 -71 98
-195 234 -107 118 -192 217 -187 220 4 4 131 31 283 60 l277 54 138 258 c76
142 141 258 144 258 3 0 68 -116 144 -258z"/>
<path d="M10462 5573 c-43 -81 -107 -200 -142 -265 l-62 -116 -267 -52 c-146
-28 -276 -55 -288 -60 -13 -6 -23 -18 -23 -30 0 -17 159 -200 357 -411 l34
-35 -36 -293 c-20 -161 -34 -299 -31 -307 3 -8 14 -14 24 -14 11 0 135 56 276
124 l256 125 256 -125 c141 -68 265 -124 276 -124 10 0 21 6 24 14 3 8 -11
146 -31 307 l-36 293 34 35 c187 198 357 394 357 411 0 12 -10 24 -22 30 -13
5 -143 32 -289 60 l-267 52 -140 261 c-104 196 -145 263 -160 265 -16 3 -34
-22 -100 -145z m242 -151 l138 -258 277 -54 c152 -29 279 -56 283 -60 5 -3
-80 -102 -187 -220 -124 -136 -195 -221 -195 -234 0 -12 16 -145 34 -296 19
-151 33 -276 32 -278 -2 -1 -121 55 -264 125 l-262 127 -262 -127 c-143 -70
-262 -126 -264 -125 -1 2 13 127 32 278 18 151 34 284 34 296 0 13 -71 98
-195 234 -107 118 -192 217 -187 220 4 4 131 31 283 60 l277 54 138 258 c76
142 141 258 144 258 3 0 68 -116 144 -258z"/>
<path d="M14221 15605 c-115 -383 -116 -395 -17 -460 26 -17 36 -45 16 -45 -5
0 -93 -45 -195 -100 -103 -55 -194 -100 -203 -100 -17 0 -58 23 -100 57 l-23
19 41 135 c95 305 98 316 93 361 -3 24 -17 65 -30 93 l-26 49 -14 -34 c-12
-31 -34 -46 -206 -137 -106 -56 -200 -110 -209 -120 -10 -10 -26 -26 -36 -36
-15 -14 -122 -331 -122 -361 0 -4 23 5 51 21 81 44 136 39 225 -20 96 -63 98
-66 84 -118 -7 -24 -18 -52 -26 -63 -7 -11 -87 -59 -176 -107 l-162 -87 -31
21 c-16 12 -31 25 -33 29 -2 4 -10 8 -17 8 -7 0 -15 4 -17 8 -1 5 -41 34 -88
65 -166 112 -241 165 -301 215 -34 28 -81 109 -81 140 -1 39 -14 12 -38 -78
-12 -47 -31 -112 -40 -145 -10 -33 -31 -107 -47 -163 -27 -100 -30 -105 -66
-123 -88 -45 -155 -147 -157 -239 -1 -32 13 -108 22 -114 1 -1 16 -12 32 -24
15 -12 32 -19 37 -16 5 3 9 -1 9 -8 0 -7 -41 -34 -91 -60 l-91 -48 -84 65
c-104 80 -159 115 -180 115 -9 0 -128 -59 -263 -132 -176 -94 -255 -131 -278
-131 -25 0 -75 29 -198 111 -90 61 -166 108 -168 104 -2 -4 -14 -39 -26 -79
-12 -40 -24 -79 -27 -86 -4 -10 8 -18 40 -26 24 -6 51 -18 60 -26 8 -8 19 -15
25 -15 6 0 11 -4 11 -10 0 -5 6 -10 14 -10 8 0 16 -4 18 -8 5 -14 167 -114
207 -128 73 -25 116 -11 347 112 l215 115 44 -28 c25 -15 45 -33 45 -38 0 -18
-586 -325 -628 -328 -22 -2 -43 -6 -48 -9 -5 -3 -44 -5 -87 -4 -43 2 -76 0
-75 -3 27 -58 131 -241 137 -241 5 0 510 267 1122 594 1085 579 1115 595 1147
641 17 26 44 85 58 131 15 46 31 84 36 84 6 0 33 -17 60 -37 43 -31 58 -36
107 -37 55 -1 67 5 619 299 309 165 562 304 562 310 0 5 -32 30 -70 55 -38 25
-70 48 -70 53 0 4 -6 7 -14 7 -8 0 -16 4 -18 8 -1 5 -25 23 -53 42 -27 18 -52
36 -55 39 -3 3 -17 13 -31 21 -48 27 -203 137 -232 164 -15 14 -30 26 -33 26
-14 0 -45 42 -77 101 l-34 65 -92 -301z m186 -108 c18 -22 54 -50 161 -124 28
-20 52 -40 52 -44 0 -4 -21 -20 -46 -35 -52 -31 -64 -28 -147 33 -67 49 -82
81 -67 144 13 55 21 59 47 26z m-785 -279 c26 -37 29 -87 9 -135 -15 -36 -23
-40 -43 -20 -7 7 -33 27 -58 44 -25 17 -53 40 -63 51 -18 20 -17 21 45 56 35
20 68 36 75 36 6 0 22 -15 35 -32z m-821 -648 c141 -95 169 -115 169 -122 0
-9 -83 -58 -99 -58 -7 0 -48 24 -91 54 -43 30 -92 62 -109 71 -37 19 -41 55
-11 85 31 31 61 24 141 -30z m-166 -231 c30 -18 55 -36 55 -40 0 -4 -26 -22
-57 -40 -90 -52 -168 -40 -194 29 -11 30 3 57 42 81 38 23 79 15 154 -30z"/>
<path d="M9763 14231 c-12 -65 -71 -198 -96 -220 -21 -17 -22 -31 -2 -31 8 0
15 -4 15 -10 0 -5 4 -10 10 -10 5 0 18 -6 27 -14 10 -8 45 -35 78 -60 33 -25
71 -58 83 -73 13 -15 111 -193 218 -395 204 -385 243 -444 314 -466 44 -14
112 -6 162 19 21 11 42 18 46 15 14 -8 181 99 182 117 0 9 -34 9 -43 0 -4 -3
-17 -8 -30 -9 -12 -1 -35 -5 -52 -8 -104 -19 -193 -3 -255 46 -20 16 -123 199
-332 590 -167 312 -305 568 -308 568 -3 0 -10 -26 -17 -59z"/>
<path d="M9396 14079 c-2 -8 -9 -34 -15 -59 -7 -25 -16 -54 -21 -65 -37 -87
-56 -123 -72 -142 -20 -21 -20 -21 0 -32 11 -6 26 -17 34 -24 7 -7 29 -23 48
-37 112 -76 135 -104 230 -282 68 -127 91 -181 92 -210 0 -21 5 -38 10 -38 5
0 18 -9 30 -20 43 -39 50 -28 43 68 -9 129 -12 148 -24 170 -6 12 -11 28 -11
37 0 13 -321 628 -336 644 -2 2 -5 -2 -8 -10z"/>
<path d="M8984 13843 c-14 -76 -87 -253 -105 -253 -5 0 -9 -7 -9 -15 0 -8 7
-15 15 -15 8 0 15 -4 15 -10 0 -5 7 -10 15 -10 8 0 15 -4 15 -8 0 -4 12 -15
28 -24 29 -18 65 -46 119 -92 18 -15 41 -47 52 -70 10 -24 38 -60 62 -82 23
-21 50 -46 60 -55 9 -9 45 -36 80 -60 35 -23 66 -45 69 -49 3 -4 41 -30 84
-60 125 -83 300 -212 313 -229 28 -37 16 -58 -54 -95 -61 -33 -68 -34 -84 -20
-18 16 -18 20 15 120 5 18 0 26 -27 43 -19 12 -39 21 -44 21 -5 0 -16 -19 -22
-42 -22 -75 -89 -205 -121 -234 -16 -16 -30 -33 -30 -39 0 -5 12 -32 27 -60
35 -68 56 -77 143 -62 19 4 467 235 488 253 9 7 -13 48 -58 111 -65 90 -81
105 -170 166 -41 28 -76 54 -78 59 -2 4 -10 8 -18 8 -8 0 -14 3 -14 8 0 4 -25
23 -55 42 -30 19 -55 38 -55 43 0 4 -7 7 -15 7 -8 0 -15 5 -15 10 0 6 -7 10
-15 10 -8 0 -15 3 -15 8 0 4 -18 18 -40 32 -22 14 -40 28 -40 32 0 5 -7 8 -15
8 -8 0 -15 5 -15 10 0 6 -4 10 -10 10 -5 0 -18 7 -27 14 -10 8 -41 32 -69 53
-114 85 -128 103 -249 332 -65 122 -119 221 -121 221 -2 0 -6 -17 -10 -37z"/>
<path d="M9230 13678 c0 -2 19 -40 43 -84 43 -83 73 -113 200 -202 l48 -34
-38 69 c-43 80 -78 123 -142 172 -56 45 -111 83 -111 79z"/>
<path d="M8761 13108 c-42 -111 -49 -152 -29 -164 6 -4 39 -8 72 -10 34 -1 78
-5 99 -9 l37 -7 0 65 0 65 -77 38 c-43 21 -81 40 -85 42 -5 2 -12 -7 -17 -20z"/>
<path d="M8502 12963 c-6 -16 -19 -52 -28 -81 -22 -71 -11 -83 82 -87 38 -1
82 -6 97 -10 l28 -7 -3 67 -3 68 -75 39 c-41 21 -78 38 -81 38 -4 0 -11 -12
-17 -27z"/>
<path d="M7070 12826 c0 -25 -49 -167 -72 -208 -7 -13 -21 -33 -31 -44 -18
-22 -18 -22 12 -40 17 -10 31 -22 31 -26 0 -4 7 -8 15 -8 8 0 15 -3 15 -7 0
-5 19 -20 43 -35 23 -15 58 -44 78 -65 22 -23 132 -219 283 -503 137 -256 249
-466 250 -468 2 -1 181 93 399 209 l397 211 72 -16 c89 -19 200 -21 248 -4 8
3 40 13 70 22 90 29 110 38 110 50 0 8 -22 11 -67 10 -69 -2 -193 23 -193 38
0 5 -4 6 -10 3 -5 -3 -10 0 -9 7 0 7 42 34 93 60 97 49 114 51 196 26 41 -12
138 -63 163 -86 9 -8 19 -13 21 -11 3 2 27 74 55 159 40 121 51 167 50 212 -2
53 -5 59 -48 102 -66 64 -71 68 -126 106 -27 19 -51 37 -53 42 -2 4 -10 8 -18
8 -8 0 -14 4 -14 8 0 4 -12 15 -27 24 -32 19 -103 82 -103 90 0 3 -11 25 -24
48 l-24 42 -32 -103 c-26 -86 -31 -114 -26 -159 6 -48 12 -60 49 -95 24 -23
59 -52 78 -65 19 -13 48 -35 65 -49 17 -14 48 -39 69 -56 74 -57 96 -92 81
-130 -5 -13 -10 -14 -28 -4 -13 7 -25 12 -28 11 -5 -2 -22 3 -135 38 -129 41
-152 38 -300 -40 l-130 -68 -30 21 c-17 12 -32 24 -35 27 -3 4 -34 26 -70 50
-36 24 -67 46 -70 50 -3 4 -34 26 -70 50 -36 24 -70 49 -76 55 -20 19 -138 93
-161 99 -18 6 -25 -1 -48 -49 -22 -48 -105 -299 -105 -319 0 -4 22 5 49 20 37
20 59 25 88 21 62 -8 74 -13 166 -66 49 -27 97 -53 108 -56 10 -4 19 -12 19
-18 0 -19 -448 -252 -481 -250 -16 1 -50 12 -76 24 l-48 22 -295 553 c-162
305 -298 554 -302 554 -5 0 -8 -11 -8 -24z"/>
<path d="M9742 12393 c-43 -41 -81 -121 -88 -186 -3 -34 -1 -39 29 -52 17 -8
51 -19 75 -25 61 -16 71 -42 45 -120 -12 -37 -15 -60 -9 -60 25 0 77 70 101
137 32 89 33 126 3 141 -35 17 -72 27 -110 30 -35 4 -40 37 -14 106 13 36 20
66 16 66 -5 0 -26 -17 -48 -37z"/>
<path d="M6742 11445 c-200 -107 -255 -132 -278 -128 -16 3 -102 54 -191 114
-89 59 -164 105 -167 101 -8 -14 -56 -175 -53 -178 2 -2 12 -5 23 -7 28 -4 84
-31 84 -39 0 -5 6 -8 14 -8 8 0 16 -4 18 -9 2 -4 37 -30 78 -56 41 -26 78 -52
81 -56 13 -21 122 -50 163 -44 23 4 132 55 248 116 113 60 211 109 218 109 13
0 71 -38 82 -54 4 -6 4 -14 0 -17 -4 -4 -133 -74 -287 -156 -299 -159 -327
-170 -457 -169 l-76 1 21 -39 c20 -36 145 -166 167 -174 5 -2 221 110 480 248
464 248 563 310 529 331 -8 4 -24 6 -36 3 -27 -7 -82 25 -204 119 -101 76
-156 112 -186 119 -15 4 -93 -32 -271 -127z"/>
<path d="M21230 5947 c0 -63 0 -63 36 -81 26 -12 35 -13 32 -4 -3 7 -16 43
-29 81 -13 37 -27 67 -31 67 -5 0 -8 -28 -8 -63z"/>
</g>
</svg>
